<?xml version="1.0" encoding="UTF-8" standalone="no"?>
<!DOCTYPE svg PUBLIC "-//W3C//DTD SVG 1.1//EN"
 "http://www.w3.org/Graphics/SVG/1.1/DTD/svg11.dtd">
<!-- Generated by graphviz version 2.43.0 (0)
 -->
<!-- Title: WattBot Pages: 1 -->
<svg width="254pt" height="677pt"
 viewBox="0.00 0.00 254.00 677.25" xmlns="http://www.w3.org/2000/svg" xmlns:xlink="http://www.w3.org/1999/xlink">
<g id="graph0" class="graph" transform="scale(1 1) rotate(0) translate(4 673.25)">
<title>WattBot</title>
<polygon fill="white" stroke="transparent" points="-4,4 -4,-673.25 250,-673.25 250,4 -4,4"/>
<!-- pdf -->
<g id="node1" class="node">
<title>pdf</title>
<polygon fill="#b3d9f2" stroke="black" points="140.5,-669.25 85.5,-669.25 85.5,-633.25 140.5,-633.25 140.5,-669.25"/>
<text text-anchor="middle" x="113" y="-647.55" font-family="Times,serif" font-size="14.00">PDFs</text>
</g>
<!-- dl -->
<g id="node2" class="node">
<title>dl</title>
<polygon fill="#b3d9f2" stroke="black" points="204,-582.25 22,-582.25 22,-544.25 204,-544.25 204,-582.25"/>
<text text-anchor="middle" x="113" y="-567.05" font-family="Times,serif" font-size="14.00">Datalab</text>
<text text-anchor="middle" x="113" y="-552.05" font-family="Times,serif" font-size="14.00">(Markdown Extraction)</text>
</g>
<!-- pdf&#45;&gt;dl -->
<g id="edge1" class="edge">
<title>pdf&#45;&gt;dl</title>
<path fill="none" stroke="black" d="M113,-632.85C113,-621.31 113,-605.9 113,-592.61"/>
<polygon fill="black" stroke="black" points="116.5,-592.52 113,-582.52 109.5,-592.52 116.5,-592.52"/>
<text text-anchor="middle" x="145.5" y="-604.05" font-family="Helvetica,sans-Serif" font-size="14.00">raw PDFs</text>
</g>
<!-- chunk -->
<g id="node3" class="node">
<title>chunk</title>
<polygon fill="#b3d9f2" stroke="black" points="177,-493.25 49,-493.25 49,-455.25 177,-455.25 177,-493.25"/>
<text text-anchor="middle" x="113" y="-478.05" font-family="Times,serif" font-size="14.00">Sliding Window</text>
<text text-anchor="middle" x="113" y="-463.05" font-family="Times,serif" font-size="14.00">Chunks</text>
</g>
<!-- dl&#45;&gt;chunk -->
<g id="edge2" class="edge">
<title>dl&#45;&gt;chunk</title>
<path fill="none" stroke="black" d="M113,-544.22C113,-532.44 113,-516.81 113,-503.41"/>
<polygon fill="black" stroke="black" points="116.5,-503.25 113,-493.25 109.5,-503.25 116.5,-503.25"/>
<text text-anchor="middle" x="150" y="-515.05" font-family="Helvetica,sans-Serif" font-size="14.00">markdown</text>
</g>
<!-- bm25 -->
<g id="node4" class="node">
<title>bm25</title>
<path fill="#ffe699" stroke="black" d="M104,-392.85C104,-394.66 80.69,-396.12 52,-396.12 23.31,-396.12 0,-394.66 0,-392.85 0,-392.85 0,-363.4 0,-363.4 0,-361.59 23.31,-360.12 52,-360.12 80.69,-360.12 104,-361.59 104,-363.4 104,-363.4 104,-392.85 104,-392.85"/>
<path fill="none" stroke="black" d="M104,-392.85C104,-391.05 80.69,-389.58 52,-389.58 23.31,-389.58 0,-391.05 0,-392.85"/>
<text text-anchor="middle" x="52" y="-374.43" font-family="Times,serif" font-size="14.00">BM25 Index</text>
</g>
<!-- chunk&#45;&gt;bm25 -->
<g id="edge3" class="edge">
<title>chunk&#45;&gt;bm25</title>
<path fill="none" stroke="black" d="M97.31,-455.04C92.8,-449.48 88.02,-443.25 84,-437.25 77.22,-427.14 70.59,-415.48 65.13,-405.26"/>
<polygon fill="black" stroke="black" points="68.22,-403.61 60.49,-396.37 62.02,-406.86 68.22,-403.61"/>
<text text-anchor="middle" x="113" y="-426.05" font-family="Helvetica,sans-Serif" font-size="14.00">tokenize</text>
</g>
<!-- emb -->
<g id="node5" class="node">
<title>emb</title>
<path fill="#ffe699" stroke="black" d="M228,-399.6C228,-402.24 204.24,-404.38 175,-404.38 145.76,-404.38 122,-402.24 122,-399.6 122,-399.6 122,-356.65 122,-356.65 122,-354.01 145.76,-351.87 175,-351.87 204.24,-351.87 228,-354.01 228,-356.65 228,-356.65 228,-399.6 228,-399.6"/>
<path fill="none" stroke="black" d="M228,-399.6C228,-396.97 204.24,-394.83 175,-394.83 145.76,-394.83 122,-396.97 122,-399.6"/>
<text text-anchor="middle" x="175" y="-381.93" font-family="Times,serif" font-size="14.00">Qwen 8B</text>
<text text-anchor="middle" x="175" y="-366.93" font-family="Times,serif" font-size="14.00">Embeddings</text>
</g>
<!-- chunk&#45;&gt;emb -->
<g id="edge4" class="edge">
<title>chunk&#45;&gt;emb</title>
<path fill="none" stroke="black" d="M128.64,-455C133.15,-449.45 137.94,-443.22 142,-437.25 147.17,-429.65 152.3,-421.19 156.92,-413.13"/>
<polygon fill="black" stroke="black" points="160.05,-414.7 161.89,-404.27 153.94,-411.27 160.05,-414.7"/>
<text text-anchor="middle" x="174.5" y="-426.05" font-family="Helvetica,sans-Serif" font-size="14.00">embed</text>
</g>
<!-- hybrid -->
<g id="node6" class="node">
<title>hybrid</title>
<polygon fill="#a5d6a7" stroke="black" points="173,-301 53,-301 53,-265 173,-265 173,-301"/>
<text text-anchor="middle" x="113" y="-279.3" font-family="Times,serif" font-size="14.00">Hybrid Search</text>
</g>
<!-- bm25&#45;&gt;hybrid -->
<g id="edge5" class="edge">
<title>bm25&#45;&gt;hybrid</title>
<path fill="none" stroke="black" d="M50.01,-360.1C49.41,-347.8 50.43,-331.25 58,-319 60.61,-314.77 63.95,-310.96 67.69,-307.55"/>
<polygon fill="black" stroke="black" points="70.14,-310.07 75.81,-301.11 65.8,-304.58 70.14,-310.07"/>
<text text-anchor="middle" x="104.5" y="-322.8" font-family="Helvetica,sans-Serif" font-size="14.00">lexical scores</text>
</g>
<!-- emb&#45;&gt;hybrid -->
<g id="edge6" class="edge">
<title>emb&#45;&gt;hybrid</title>
<path fill="none" stroke="black" d="M167.3,-351.87C163.37,-341.19 157.93,-328.94 151,-319 148.39,-315.26 145.32,-311.62 142.07,-308.19"/>
<polygon fill="black" stroke="black" points="144.38,-305.56 134.78,-301.07 139.49,-310.57 144.38,-305.56"/>
<text text-anchor="middle" x="196" y="-322.8" font-family="Helvetica,sans-Serif" font-size="14.00">cosine sim</text>
</g>
<!-- rerank -->
<g id="node7" class="node">
<title>rerank</title>
<polygon fill="#a5d6a7" stroke="black" points="154.5,-214 71.5,-214 71.5,-176 154.5,-176 154.5,-214"/>
<text text-anchor="middle" x="113" y="-198.8" font-family="Times,serif" font-size="14.00">Qwen 8B</text>
<text text-anchor="middle" x="113" y="-183.8" font-family="Times,serif" font-size="14.00">Reranker</text>
</g>
<!-- hybrid&#45;&gt;rerank -->
<g id="edge7" class="edge">
<title>hybrid&#45;&gt;rerank</title>
<path fill="none" stroke="black" d="M113,-264.6C113,-253.06 113,-237.65 113,-224.36"/>
<polygon fill="black" stroke="black" points="116.5,-224.27 113,-214.27 109.5,-224.27 116.5,-224.27"/>
<text text-anchor="middle" x="164.5" y="-235.8" font-family="Helvetica,sans-Serif" font-size="14.00">top candidates</text>
</g>
<!-- llm -->
<g id="node8" class="node">
<title>llm</title>
<polygon fill="#f48fb1" stroke="black" points="190,-125 36,-125 36,-87 190,-87 190,-125"/>
<text text-anchor="middle" x="113" y="-109.8" font-family="Times,serif" font-size="14.00">LLM</text>
<text text-anchor="middle" x="113" y="-94.8" font-family="Times,serif" font-size="14.00">(DeepSeek/Kimi/...)</text>
</g>
<!-- rerank&#45;&gt;llm -->
<g id="edge8" class="edge">
<title>rerank&#45;&gt;llm</title>
<path fill="none" stroke="black" d="M113,-175.97C113,-164.19 113,-148.56 113,-135.16"/>
<polygon fill="black" stroke="black" points="116.5,-135 113,-125 109.5,-135 116.5,-135"/>
<text text-anchor="middle" x="179.5" y="-146.8" font-family="Helvetica,sans-Serif" font-size="14.00">context + question</text>
</g>
<!-- out -->
<g id="node9" class="node">
<title>out</title>
<polygon fill="#f48fb1" stroke="black" points="169.5,-36 56.5,-36 56.5,0 169.5,0 169.5,-36"/>
<text text-anchor="middle" x="113" y="-14.3" font-family="Times,serif" font-size="14.00">JSON Answer</text>
</g>
<!-- llm&#45;&gt;out -->
<g id="edge9" class="edge">
<title>llm&#45;&gt;out</title>
<path fill="none" stroke="black" d="M113,-86.76C113,-74.93 113,-59.32 113,-46.05"/>
<polygon fill="black" stroke="black" points="116.5,-46.04 113,-36.04 109.5,-46.04 116.5,-46.04"/>
<text text-anchor="middle" x="174.5" y="-57.8" font-family="Helvetica,sans-Serif" font-size="14.00">structured output</text>
</g>
</g>
</svg>
